<svg xmlns="http://www.w3.org/2000/svg" width="101" height="101" viewBox="0 0 101 101" fill="none"><g clip-path="url(#clip0)"><path d="M23.5 39L25.5 36L36 35.5L38 37L38.5 63.5L35 65L26.5 64.5L23.5 62.5V60V46V39Z" fill="#F54114" stroke="black"></path><path d="M29.5 59.5V56L32 55.5L33 57.5L32.5 59.5H29.5Z" fill="white" stroke="black"></path><path d="M47.3514 80.2L42 76.8L48.3243 76.3143L49.2973 74.8571L51.7297 70L53.6757 76.3143L60 76.8L54.6486 81.6571L56.5946 87L50.7568 83.6L45.4054 87L47.3514 80.2Z" fill="#F54114" stroke="black"></path><path d="M20 80L14.5 76.5L21 76L22 74.5L24.5 69.5L26.5 76L33 76.5L27.5 81.5L29.5 87L23.5 83.5L18 87L20 80Z" fill="#F54114" stroke="black"></path><path d="M74.3514 80.2L69 76.8L75.3243 76.3143L76.2973 74.8571L78.7297 70L80.6757 76.3143L87 76.8L81.6486 81.6571L83.5946 87L77.7568 83.6L72.4054 87L74.3514 80.2Z" fill="#F54114" stroke="black"></path><path d="M31.1913 54.3252C29.3261 54.3252 27.8086 55.8425 27.8086 57.7076C27.8086 59.5728 29.3261 61.0901 31.1913 61.0901C33.0565 61.0901 34.5738 59.5728 34.5738 57.7076C34.5738 55.8425 33.0563 54.3252 31.1913 54.3252ZM31.1913 58.8595C30.5563 58.8595 30.0396 58.3428 30.0396 57.7079C30.0396 57.0731 30.5563 56.5564 31.1913 56.5564C31.8264 56.5564 32.3429 57.0731 32.3429 57.7079C32.3429 58.3428 31.8262 58.8595 31.1913 58.8595Z" fill="black"></path><path d="M61.7951 75.8356C61.6459 75.3756 61.2175 75.0646 60.7343 75.0646H54.1084L52.0608 68.763C51.9133 68.3087 51.4776 67.9922 50.9999 67.9922C50.5223 67.9922 50.0868 68.3085 49.9391 68.763L47.8915 75.0646H41.2657C40.7825 75.0646 40.3541 75.3758 40.2048 75.8355C40.0555 76.295 40.2191 76.7987 40.6101 77.0825L45.9704 80.9772L43.9229 87.2788C43.7799 87.7183 43.9302 88.2134 44.2932 88.4994C44.6811 88.8051 45.2398 88.8162 45.6394 88.5258L50.9998 84.6311L56.3602 88.5258C56.7794 88.8304 57.3687 88.8012 57.7561 88.4576C58.0846 88.1662 58.2124 87.6965 58.0766 87.279L56.029 80.9774L61.3894 77.0826C61.7808 76.7988 61.9444 76.2952 61.7951 75.8356ZM54.0625 79.6485C53.6715 79.9325 53.5079 80.436 53.6573 80.8956L54.8943 84.703L51.6554 82.35C51.2689 82.069 50.7307 82.069 50.3443 82.35L47.1054 84.703L48.3425 80.8956C48.4918 80.436 48.3282 79.9324 47.9372 79.6485L44.6985 77.2955H48.7018C49.185 77.2955 49.6134 76.9844 49.7627 76.5247L50.9998 72.7173L52.2369 76.5247C52.3862 76.9844 52.8146 77.2955 53.2978 77.2955H57.3011L54.0625 79.6485Z" fill="black"></path><path d="M88.9452 75.8355C88.7959 75.3758 88.3675 75.0646 87.8843 75.0646H81.2585L79.211 68.763C79.0634 68.3087 78.6278 67.9922 78.1501 67.9922C77.6724 67.9922 77.2369 68.3085 77.0892 68.763L75.0416 75.0646H68.4158C67.9327 75.0646 67.5043 75.3758 67.355 75.8355C67.2056 76.295 67.3692 76.7987 67.7602 77.0825L73.1206 80.9772L71.073 87.2788C70.9301 87.7183 71.0803 88.2134 71.4434 88.4994C71.8312 88.8051 72.39 88.8162 72.7896 88.5258L78.1499 84.6311L83.5103 88.5258C83.9296 88.8304 84.5188 88.8012 84.9064 88.4576C85.2349 88.1662 85.3627 87.6965 85.2268 87.279L83.1793 80.9774L88.5397 77.0826C88.9311 76.7987 89.0947 76.295 88.9452 75.8355ZM81.2126 79.6487C80.8217 79.9327 80.6581 80.4362 80.8074 80.8957L82.0443 84.7031L78.8057 82.3501C78.4146 82.066 77.8853 82.0658 77.4944 82.3501L74.2555 84.7031L75.4926 80.8957C75.6419 80.4362 75.4784 79.9325 75.0874 79.6487L71.8486 77.2957H75.8521C76.3353 77.2957 76.7637 76.9845 76.913 76.5248L78.1501 72.7174L79.3872 76.5248C79.5365 76.9845 79.9649 77.2957 80.448 77.2957H84.4514L81.2126 79.6487Z" fill="black"></path><path d="M34.6451 75.8356C34.4956 75.3756 34.0672 75.0646 33.584 75.0646H26.9582L24.9107 68.763C24.7613 68.3033 24.333 67.9922 23.8498 67.9922C23.3666 67.9922 22.9382 68.3033 22.7889 68.763L20.7414 75.0646H14.1156C13.6324 75.0646 13.204 75.3758 13.0547 75.8355C12.9053 76.295 13.0689 76.7987 13.4599 77.0825L18.8203 80.9772L16.7727 87.2788C16.6234 87.7384 16.787 88.242 17.178 88.5258C17.5688 88.8099 18.0983 88.8099 18.4893 88.5258L23.8496 84.6311L29.21 88.5258C29.6294 88.8304 30.2185 88.8012 30.6059 88.4576C30.9344 88.1662 31.0622 87.6965 30.9264 87.279L28.8788 80.9773L34.2392 77.0826C34.6308 76.7988 34.7944 76.2952 34.6451 75.8356ZM26.9123 79.6485C26.5214 79.9325 26.3578 80.436 26.5071 80.8956L27.7442 84.703L24.5053 82.3499C24.1188 82.069 23.5805 82.069 23.194 82.3499L19.9554 84.7028L21.1923 80.8954C21.3416 80.4358 21.1781 79.9322 20.7871 79.6484L17.5483 77.2954H21.5517C22.0348 77.2954 22.4632 76.9842 22.6126 76.5245L23.8496 72.7171L25.0867 76.5245C25.236 76.9842 25.6644 77.2954 26.1476 77.2954H30.151L26.9123 79.6485Z" fill="black"></path><path d="M79.9699 41.0693C81.1221 40.1421 81.8606 38.7205 81.8606 37.13C81.8606 34.3428 79.5931 32.0753 76.806 32.0753H58.8635C59.4212 30.8593 60.0649 29.0069 60.4329 26.432C61.2876 20.4486 59.996 17.2726 58.7621 15.662C57.7177 14.2987 56.3145 13.4743 54.7046 13.278C53.3461 13.1112 52.1056 14.1902 52.0693 15.5549C51.8605 17.7004 51.0965 23.5864 50.0022 25.7753C47.1909 31.3978 40.4884 34.75 38.4183 35.6774C37.6939 35.0549 36.7531 34.6774 35.7253 34.6774H26.6567C24.3749 34.6774 22.5186 36.5336 22.5186 38.8155V61.4865C22.5186 63.7685 24.3749 65.6247 26.6567 65.6247H35.725C36.9459 65.6247 38.0448 65.0928 38.8027 64.2491C39.98 64.9923 41.88 65.8203 44.5039 65.8203H73.6545C76.4417 65.8203 78.7091 63.5528 78.7091 60.7657C78.7091 59.4881 78.2326 58.3196 77.448 57.4287C79.1265 56.6056 80.2846 54.8788 80.2846 52.887C80.2846 51.6094 79.8081 50.441 79.0235 49.5499C80.702 48.727 81.8601 47.0002 81.8601 45.0083C81.8606 43.418 81.122 41.9964 79.9699 41.0693ZM35.725 63.3937H26.6567C25.605 63.3937 24.7494 62.5381 24.7494 61.4864V38.8154C24.7494 37.7637 25.605 36.9081 26.6567 36.9081H35.725C36.2576 36.9081 36.7393 37.1281 37.0856 37.4814V62.3565C37.0856 62.49 37.1098 62.6209 37.1555 62.7438C36.8057 63.1412 36.2949 63.3937 35.725 63.3937ZM72.1194 42.1846H76.8064C78.3636 42.1846 79.6302 43.4515 79.6302 45.0083C79.6302 46.5652 78.3634 47.8321 76.8064 47.8321H72.1194C71.5034 47.8321 71.0039 48.3314 71.0039 48.9476C71.0039 49.5637 71.5034 50.0631 72.1194 50.0631H75.2306C76.7877 50.0631 78.0544 51.33 78.0544 52.8868C78.0544 54.4436 76.7876 55.7105 75.2306 55.7105H71.2642C70.6482 55.7105 70.1487 56.2099 70.1487 56.826C70.1487 57.4422 70.6482 57.9416 71.2642 57.9416H73.6548C75.2118 57.9416 76.4785 59.2085 76.4785 60.7654C76.4785 62.3224 75.2118 63.5892 73.6548 63.5892H44.5042C42.202 63.5892 40.6411 62.8179 39.7937 62.2388C39.8388 61.9945 39.8636 61.7432 39.8636 61.4861V38.8154C39.8636 38.3793 39.7953 37.959 39.6698 37.5642C42.2835 36.3647 48.9749 32.8181 51.9975 26.7729C53.5093 23.7494 54.2631 16.05 54.2944 15.7237C54.2977 15.6884 54.2995 15.6526 54.2995 15.6171C54.2995 15.5791 54.314 15.5468 54.3427 15.5215C54.3827 15.4863 54.4213 15.4908 54.4342 15.4924C55.1325 15.5776 56.1429 15.9116 56.9912 17.0187C57.9651 18.2899 58.9696 20.9002 58.2244 26.1166C57.5928 30.5381 56.0953 32.4724 56.0859 32.4844C55.5012 33.199 56.0277 34.3063 56.9491 34.3063H76.8063C78.3634 34.3063 79.63 35.5732 79.63 37.1302C79.63 38.6873 78.3633 39.9539 76.8063 39.9539H72.1192C71.5032 39.9539 71.0037 40.4532 71.0037 41.0694C71.0037 41.6856 71.5032 42.1846 72.1194 42.1846Z" fill="black"></path></g><defs><clipPath id="clip0"><rect width="76" height="76" fill="white" transform="translate(13 13)"></rect></clipPath></defs></svg>