<svg xmlns="http://www.w3.org/2000/svg" width="101" height="101" viewBox="0 0 101 101" fill="none"><path d="M14.5 57V28.5L28 30.5L30.5 32.5L24 57H14.5Z" fill="#F54114" stroke="black"></path><path d="M86 60V31.5L72.5 33.5L70 35.5L76.5 60H86Z" fill="#F54114" stroke="black"></path><path d="M73.0083 59.8186C71.5168 56.709 66.1809 52.3927 61.0256 48.2222C58.1503 45.8978 55.4333 43.7002 53.7011 41.9681C53.2673 41.5311 52.6181 41.3917 52.045 41.5976C50.9779 41.984 50.3191 42.2816 49.7999 42.5127C49.0083 42.8673 48.7423 42.9877 47.675 43.0953C47.2031 43.1428 46.7789 43.3962 46.516 43.7888C44.2771 47.1359 41.9591 46.8509 40.4106 46.3317C39.9166 46.1671 39.828 45.9548 39.7805 45.7522C39.448 44.3621 41.1169 41.1257 43.2796 38.9628C48.4255 33.8138 51.0791 32.5249 56.6841 35.0298C63.0428 37.8734 69.4141 40.0997 69.4775 40.1218C70.3104 40.4099 71.2065 39.9729 71.4946 39.1464C71.7796 38.32 71.3458 37.4174 70.5193 37.1293C70.4559 37.1072 64.2113 34.9253 57.9793 32.1354C50.7181 28.8896 46.7344 31.0271 41.0439 36.7208C38.8779 38.8868 35.936 43.2694 36.696 46.4837C37.0221 47.8517 37.9849 48.8651 39.4161 49.3368C43.004 50.5212 46.2782 49.3875 48.7166 46.1512C49.7236 45.9961 50.2715 45.7681 51.0947 45.3976C51.3923 45.2646 51.7407 45.1095 52.2031 44.9226C54.0145 46.6231 56.4591 48.6022 59.0336 50.6827C63.6886 54.4478 68.9675 58.7166 70.155 61.1866C70.7409 62.4057 70.1106 63.2006 69.6831 63.5647C69.0561 64.1031 68.198 64.2741 67.7325 63.9478C67.2195 63.5963 66.5514 63.5742 66.0225 63.8908C65.4905 64.2074 65.1929 64.8059 65.2594 65.4203C65.367 66.4273 64.4455 67.0037 64.0465 67.2032C63.0331 67.7162 61.9755 67.6276 61.5796 67.2602C61.1362 66.8486 60.4997 66.7282 59.9361 66.9372C59.3725 67.1493 58.9797 67.6687 58.9227 68.2703C58.8277 69.3089 58.0582 70.3064 57.0543 70.6959C56.5698 70.8796 55.8668 70.9905 55.2367 70.4141C54.8441 70.0595 54.2993 69.9232 53.7896 70.0467C53.2735 70.1733 52.8586 70.5471 52.6781 71.0442C52.618 71.2026 52.4817 71.5826 50.9997 71.5826C49.9452 71.5826 48.0483 70.8701 47.1206 70.2557C46.0091 69.5242 39.0392 64.3246 33.0195 59.2832C32.174 58.5707 30.711 57.0443 29.419 55.6953C28.2726 54.4983 27.2245 53.4122 26.6861 52.9562C26.0116 52.3862 25.0141 52.4717 24.4536 53.1431C23.89 53.8112 23.9722 54.8119 24.6405 55.3756C25.1314 55.7904 26.0814 56.7942 27.1295 57.8867C28.5419 59.3623 30.0016 60.8887 30.9834 61.7121C36.8798 66.6489 43.9668 71.9785 45.379 72.9062C46.5444 73.6726 49.0555 74.7492 50.9999 74.7492C52.561 74.7492 53.7613 74.3913 54.594 73.6916C55.7086 74.1254 56.9754 74.1286 58.1945 73.6536C59.6354 73.0962 60.8196 71.9721 61.491 70.6105C62.7386 70.8765 64.1669 70.6896 65.4651 70.0373C66.735 69.3977 67.6532 68.4192 68.1092 67.2759C69.3696 67.3424 70.6678 66.896 71.7413 65.9744C73.5593 64.4197 74.0595 62.0005 73.0083 59.8186Z" fill="black"></path><path d="M44.6666 33.5828H30.4166C29.5426 33.5828 28.8333 34.2921 28.8333 35.1661C28.8333 36.0401 29.5426 36.7495 30.4166 36.7495H44.6666C45.5406 36.7495 46.25 36.0401 46.25 35.1661C46.25 34.2921 45.5406 33.5828 44.6666 33.5828Z" fill="black"></path><path d="M77.6475 56.4492C77.1566 55.7241 76.175 55.5246 75.4499 56.0186L70.8203 59.1282C70.0952 59.6159 69.9019 60.6007 70.3897 61.3258C70.6968 61.7787 71.1972 62.0257 71.707 62.0257C72.0079 62.0257 72.315 61.9402 72.5874 61.7566L77.217 58.647C77.942 58.1592 78.1351 57.1745 77.6475 56.4492Z" fill="black"></path><path d="M67.818 64.0051C66.6844 63.1121 61.6145 57.9219 58.4795 54.6539C57.8746 54.0206 56.8709 53.9984 56.2406 54.6064C55.6072 55.2113 55.5882 56.2151 56.1931 56.8453C57.007 57.6939 64.1857 65.1768 65.8546 66.4942C66.1427 66.7222 66.4911 66.8331 66.8331 66.8331C67.2986 66.8331 67.7641 66.6241 68.0807 66.2282C68.6224 65.5441 68.5053 64.5466 67.818 64.0051Z" fill="black"></path><path d="M61.4911 67.1812C59.5942 65.6643 54.8285 60.6008 53.7517 59.4292C53.1563 58.7832 52.1588 58.7452 51.5128 59.3342C50.8699 59.9263 50.8257 60.9302 51.4178 61.5731C51.4748 61.6332 57.1622 67.7735 59.5118 69.6545C59.8032 69.8856 60.1547 69.9996 60.4998 69.9996C60.9622 69.9996 61.4244 69.7937 61.7379 69.4075C62.2828 68.7233 62.172 67.7258 61.4911 67.1812Z" fill="black"></path><path d="M55.1896 70.3702C52.9317 68.4671 48.3116 63.5492 47.4091 62.5833C46.8106 61.9437 45.8067 61.9088 45.1702 62.5073C44.5306 63.1058 44.4988 64.1064 45.0942 64.7462C46.3926 66.1363 50.8132 70.8231 53.1471 72.7927C53.4447 73.0428 53.8057 73.1663 54.1667 73.1663C54.6164 73.1663 55.0661 72.9732 55.3796 72.6027C55.9432 71.9313 55.8577 70.9338 55.1896 70.3702Z" fill="black"></path><path d="M31.506 30.85C28.7921 28.2786 17.94 27.4458 14.6784 27.2526C14.2288 27.2305 13.8139 27.3793 13.4973 27.6801C13.1805 27.9778 13 28.3958 13 28.8328V57.3328C13 58.2068 13.7094 58.9162 14.5834 58.9162H24.0834C24.7674 58.9162 25.3754 58.476 25.5875 57.8237C25.8186 57.1143 31.2749 40.369 31.9936 32.1356C32.0349 31.6543 31.8575 31.1793 31.506 30.85ZM22.9275 55.7495H16.1666V30.5301C21.2555 30.9323 26.7465 31.8063 28.7415 32.7753C27.9024 39.7103 24.1055 52.0318 22.9275 55.7495Z" fill="black"></path><path d="M87.4166 30.416C74.9842 30.416 68.0872 33.5985 67.7991 33.7315C67.3875 33.9246 67.0802 34.2825 66.9536 34.7164C66.827 35.1503 66.8902 35.6158 67.1277 36.002C69.0847 39.1529 75.2122 56.6519 76.3902 60.9205C76.5802 61.6076 77.2041 62.0826 77.9166 62.0826H87.4166C88.2906 62.0826 88.9999 61.3732 88.9999 60.4992V31.9992C88.9999 31.1221 88.2906 30.416 87.4166 30.416ZM85.8333 58.916H79.1009C77.5999 54.0266 73.1666 41.2776 70.6935 36.0084C73.1096 35.1883 78.2998 33.779 85.8333 33.6018V58.916Z" fill="black"></path></svg>