<svg xmlns="http://www.w3.org/2000/svg" width="101" height="101" viewBox="0 0 101 101" fill="none"><path d="M49 68.5V47H53V67.5L55 69V80.5L61 81V83.5L60 85.5H41.5V81L47 80.5V79.5V70.5L47.5 69L49 68.5Z" fill="#F54114" stroke="black"></path><path d="M30.26 27.7681C29.9037 27.7681 29.6187 27.8821 29.5334 28.1813L27.5526 35.4915L25.5576 28.1814C25.4721 27.8822 25.1872 27.7682 24.8309 27.7682C24.2183 27.7682 23.406 28.153 23.406 28.6802C23.406 28.7228 23.4203 28.7799 23.4345 28.8369L26.0992 37.5293C26.2559 38.028 26.8972 38.2701 27.5527 38.2701C28.2083 38.2701 28.8496 38.0279 29.0063 37.5293L31.6568 28.8369C31.6712 28.7798 31.6853 28.7228 31.6853 28.6802C31.6849 28.153 30.8726 27.7681 30.26 27.7681Z" fill="#F54114"></path><path d="M33.6227 27.7681C33.067 27.7681 32.5112 27.9675 32.5112 28.4377V37.5005C32.5112 37.9565 33.0671 38.1844 33.6227 38.1844C34.1783 38.1844 34.734 37.9565 34.734 37.5005V28.438C34.7341 27.9675 34.1783 27.7681 33.6227 27.7681Z" fill="#F54114"></path><path d="M38.2537 30.4187C38.2537 29.977 38.667 29.5638 39.6787 29.5638C40.8471 29.5638 41.1181 30.1052 41.631 30.1052C42.258 30.1052 42.5144 29.3216 42.5144 28.9367C42.5144 27.8253 40.4338 27.6826 39.6787 27.6826C37.8975 27.6826 36.0307 28.4949 36.0307 30.6323C36.0307 33.9667 40.5479 33.6675 40.5479 35.3918C40.5479 36.0757 39.8213 36.3322 39.1656 36.3322C37.8402 36.3322 37.4129 35.2779 36.7431 35.2779C36.2017 35.2779 35.7742 35.9903 35.7742 36.4747C35.7742 37.4152 37.3418 38.3272 39.2084 38.3272C41.2746 38.3272 42.7706 37.2157 42.7706 35.1638C42.7709 31.573 38.2537 31.8437 38.2537 30.4187Z" fill="#F54114"></path><path d="M44.9794 27.7681C44.4236 27.7681 43.8679 27.9675 43.8679 28.4377V37.5005C43.8679 37.9565 44.4238 38.1844 44.9794 38.1844C45.5349 38.1844 46.0907 37.9565 46.0907 37.5005V28.438C46.0907 27.9675 45.5351 27.7681 44.9794 27.7681Z" fill="#F54114"></path><path d="M53.8 27.7681H47.644C47.1738 27.7681 46.9744 28.281 46.9744 28.7512C46.9744 29.2926 47.2166 29.7629 47.644 29.7629H49.6105V37.5005C49.6105 37.9565 50.1662 38.1844 50.7217 38.1844C51.2773 38.1844 51.8332 37.9565 51.8332 37.5005V29.7629H53.7995C54.227 29.7629 54.4693 29.2927 54.4693 28.7512C54.4697 28.2812 54.2703 27.7681 53.8 27.7681Z" fill="#F54114"></path><path d="M58.5735 27.7681C56.6072 27.7681 55.0825 28.6801 55.0825 31.1309V34.9072C55.0825 37.3581 56.6073 38.27 58.5735 38.27C60.54 38.27 62.079 37.358 62.079 34.9072V31.131C62.079 28.6802 60.54 27.7681 58.5735 27.7681ZM59.8559 34.9072C59.8559 35.8903 59.3715 36.3321 58.5734 36.3321C57.7754 36.3321 57.3054 35.8904 57.3054 34.9072V31.131C57.3054 30.1479 57.7756 29.7061 58.5734 29.7061C59.3713 29.7061 59.8559 30.1478 59.8559 31.131V34.9072Z" fill="#F54114"></path><path d="M70.6572 36.8598L68.9186 33.7105C69.9159 33.3258 70.6429 32.4139 70.6429 30.8179C70.6429 28.4953 69.0896 27.7686 67.1376 27.7686H64.1878C63.7748 27.7686 63.5039 28.0819 63.5039 28.4382V37.501C63.5039 37.957 64.0598 38.1849 64.6153 38.1849C65.1709 38.1849 65.7268 37.957 65.7268 37.501V34.0669H66.6673L68.6196 37.8574C68.7763 38.1566 69.047 38.2706 69.332 38.2706C69.9874 38.2706 70.7286 37.6721 70.7286 37.1165C70.7284 37.045 70.7141 36.9453 70.6572 36.8598ZM67.1374 32.3567H65.7265V29.7063H67.1374C67.9354 29.7063 68.4198 30.0341 68.4198 31.0315C68.4198 32.0288 67.9354 32.3567 67.1374 32.3567Z" fill="#F54114"></path><path d="M73.8062 30.4187C73.8062 29.977 74.2194 29.5638 75.2312 29.5638C76.3995 29.5638 76.6705 30.1052 77.1835 30.1052C77.8105 30.1052 78.0669 29.3216 78.0669 28.9367C78.0669 27.8253 75.9863 27.6826 75.2312 27.6826C73.45 27.6826 71.5832 28.4949 71.5832 30.6323C71.5832 33.9667 76.1004 33.6675 76.1004 35.3918C76.1004 36.0757 75.3738 36.3322 74.7181 36.3322C73.3927 36.3322 72.9653 35.2779 72.2956 35.2779C71.7542 35.2779 71.3267 35.9903 71.3267 36.4747C71.3267 37.4152 72.8942 38.3272 74.7609 38.3272C76.8271 38.3272 78.3231 37.2157 78.3231 35.1638C78.3234 31.573 73.8062 31.8437 73.8062 30.4187Z" fill="#F54114"></path><path d="M86.9159 34.143C86.3171 34.143 85.8319 34.6283 85.8319 35.227V43.482C85.8319 44.8039 84.7567 45.8792 83.4348 45.8792C81.4825 45.8792 19.4891 45.8792 18.5654 45.8792C17.2436 45.8792 16.1683 44.8039 16.1683 43.482V21.9131C16.1683 20.5912 17.2436 19.5159 18.5654 19.5159H48.4706C49.0694 19.5159 49.5546 19.0305 49.5546 18.4319C49.5546 17.8332 49.0694 17.3479 48.4706 17.3479H18.5653C16.048 17.3478 14 19.3958 14 21.9131V43.4821C14 45.9994 16.048 48.0474 18.5653 48.0474H47.8133V67.4831C46.723 67.793 45.9208 68.7956 45.9208 69.9841V79.746H42.0988C41.0296 79.746 40.1595 80.6159 40.1595 81.6853V84.7129C40.1595 85.7822 41.0295 86.6522 42.0988 86.6522H59.901C60.9703 86.6522 61.8403 85.7823 61.8403 84.7129V81.6853C61.8403 80.616 60.9704 79.746 59.901 79.746H56.079V69.9841C56.079 68.7957 55.2772 67.793 54.1865 67.4831V48.0474H83.4346C85.9517 48.0474 87.9997 45.9994 87.9997 43.4821V35.227C87.9999 34.6283 87.5145 34.143 86.9159 34.143ZM49.9814 48.0474H52.0187V67.3824H49.9814V48.0474V48.0474ZM48.0889 69.9841C48.0889 69.745 48.2835 69.5505 48.5225 69.5505C50.3744 69.5505 51.7047 69.5505 53.4773 69.5505C53.7164 69.5505 53.9109 69.745 53.9109 69.9841V79.746H48.0889V69.9841V69.9841ZM59.6722 81.9141V84.484H42.3276V81.9141C42.6138 81.9141 59.3892 81.9141 59.6722 81.9141Z" fill="black"></path><path d="M82.7107 21.5532H19.2895C18.6908 21.5532 18.2056 22.0386 18.2056 22.6372V42.7579C18.2056 43.3566 18.6908 43.8419 19.2895 43.8419H82.7107C83.3095 43.8419 83.7947 43.3566 83.7947 42.7579V22.6372C83.7947 22.0386 83.3095 21.5532 82.7107 21.5532ZM81.6266 41.674H20.3737V23.7213H81.6268V41.674H81.6266Z" fill="black"></path><path d="M83.4347 17.3479H53.5295C52.9307 17.3479 52.4456 17.8332 52.4456 18.4319C52.4456 19.0305 52.9307 19.5159 53.5295 19.5159H83.4349C84.7568 19.5159 85.8319 20.5912 85.8319 21.9131V30.1681C85.8319 30.7667 86.3171 31.2521 86.9159 31.2521C87.5147 31.2521 87.9999 30.7667 87.9999 30.1681V21.9132C87.9999 19.3959 85.9519 17.3479 83.4347 17.3479Z" fill="black"></path></svg>