<svg xmlns="http://www.w3.org/2000/svg" width="101" height="101" viewBox="0 0 101 101" fill="none"><circle cx="51.5" cy="23.5" r="3.5" fill="#F54114"></circle><path d="M84.6055 35.3867H82.0374L56.5411 22.0051C56.1017 19.6208 54.0091 17.8086 51.5 17.8086C48.9909 17.8086 46.8983 19.6208 46.4594 22.0051L20.9626 35.3867H18.3945C15.9712 35.3867 14 37.358 14 39.7812V80.7969C14 83.2202 15.9712 85.1914 18.3945 85.1914H84.6055C87.0288 85.1914 89 83.2202 89 80.7969V39.7812C89 37.358 87.0288 35.3867 84.6055 35.3867ZM51.5 20.7383C52.7114 20.7383 53.6973 21.7242 53.6973 22.9355C53.6973 24.1469 52.7114 25.1328 51.5 25.1328C50.2886 25.1328 49.3027 24.1475 49.3027 22.9355C49.3027 21.7236 50.2886 20.7383 51.5 20.7383ZM86.0703 80.7969C86.0703 81.6048 85.4134 82.2617 84.6055 82.2617H18.3945C17.5866 82.2617 16.9297 81.6048 16.9297 80.7969V39.7812C16.9297 38.9739 17.5866 38.3164 18.3945 38.3164H21.3231H21.3254H21.3277H27.1836C27.9927 38.3164 28.6484 37.6607 28.6484 36.8516C28.6484 36.0682 28.0327 35.4302 27.2597 35.3907L46.8566 25.1053C47.6748 26.8506 49.4481 28.0625 51.5 28.0625C53.5519 28.0625 55.3252 26.8506 56.144 25.1053L75.7334 35.3867H38.9023C38.0932 35.3867 37.4375 36.043 37.4375 36.8516C37.4375 37.6607 38.0932 38.3164 38.9023 38.3164H84.6055C85.4134 38.3164 86.0703 38.9739 86.0703 39.7812V80.7969Z" fill="black"></path><path d="M81.6758 41.2461H21.3242C20.5151 41.2461 19.8594 41.9024 19.8594 42.7109V77.8672C19.8594 78.6763 20.5151 79.332 21.3242 79.332H64.0977C64.9062 79.332 65.5625 78.6763 65.5625 77.8672C65.5625 77.0581 64.9062 76.4023 64.0977 76.4023H22.7891V44.1758H80.2109V76.4023H75.8164C75.0073 76.4023 74.3516 77.0581 74.3516 77.8672C74.3516 78.6763 75.0073 79.332 75.8164 79.332H81.6758C82.4849 79.332 83.1406 78.6763 83.1406 77.8672V42.7109C83.1406 41.9024 82.4849 41.2461 81.6758 41.2461Z" fill="black"></path><path d="M33.0435 38.3164C33.8526 38.3164 34.5084 37.6607 34.5084 36.8516C34.5084 36.0425 33.8526 35.3867 33.0435 35.3867H33.0424C32.2333 35.3867 31.5781 36.0425 31.5781 36.8516C31.5781 37.6607 32.2344 38.3164 33.0435 38.3164Z" fill="black"></path><path d="M69.9576 76.4023H69.9565C69.1474 76.4023 68.4922 77.0581 68.4922 77.8672C68.4922 78.6763 69.1485 79.332 69.9576 79.332C70.7667 79.332 71.4224 78.6763 71.4224 77.8672C71.4224 77.0581 70.7661 76.4023 69.9576 76.4023V76.4023Z" fill="black"></path><path d="M32.7861 64.8615H30.6523C29.8432 64.8615 29.1875 65.5178 29.1875 66.3264C29.1875 67.1355 29.8432 67.7912 30.6523 67.7912H32.7861C35.258 67.7912 37.2693 65.7799 37.2693 63.308C37.2693 60.8355 35.258 58.8242 32.7861 58.8242H32.2059C31.3493 58.8242 30.6523 58.1273 30.6523 57.2707C30.6523 56.4135 31.3493 55.7166 32.2059 55.7166H34.3396C35.1487 55.7166 35.8045 55.0608 35.8045 54.2517C35.8045 53.4432 35.1487 52.7869 34.3396 52.7869H32.2059C29.7334 52.7869 27.7227 54.7982 27.7227 57.2707C27.7227 59.7426 29.7334 61.7539 32.2059 61.7539H32.7861C33.6427 61.7539 34.3396 62.4514 34.3396 63.308C34.3396 64.1646 33.6427 64.8615 32.7861 64.8615V64.8615Z" fill="#F54114"></path><path d="M54.0664 52.7869C53.2579 52.7869 52.6016 53.4426 52.6016 54.2517V66.3264C52.6016 67.1355 53.2579 67.7912 54.0664 67.7912H61.3906C62.1997 67.7912 62.8555 67.1355 62.8555 66.3264C62.8555 65.5178 62.1997 64.8615 61.3906 64.8615H55.5312V54.2517C55.5312 53.4426 54.8755 52.7869 54.0664 52.7869V52.7869Z" fill="#F54114"></path><path d="M39.6387 57.9138V62.6643C39.6387 65.4915 41.9384 67.7912 44.7656 67.7912C47.5923 67.7912 49.8926 65.4915 49.8926 62.6643V57.9138C49.8926 55.0866 47.5923 52.7869 44.7656 52.7869C41.9384 52.7869 39.6387 55.0866 39.6387 57.9138ZM46.9629 57.9138V62.6643C46.9629 63.8762 45.977 64.8615 44.7656 64.8615C43.5537 64.8615 42.5684 63.8762 42.5684 62.6643V57.9138C42.5684 56.7019 43.5537 55.7166 44.7656 55.7166C45.977 55.7166 46.9629 56.7025 46.9629 57.9138Z" fill="#F54114"></path><path d="M75.2773 57.9138C75.2773 55.0866 72.9776 52.7869 70.1509 52.7869H66.4888C65.6797 52.7869 65.0239 53.4426 65.0239 54.2517V66.3264C65.0239 67.1355 65.6797 67.7912 66.4888 67.7912H70.1509C72.9776 67.7912 75.2773 65.4915 75.2773 62.6643V57.9138ZM72.3476 62.6643C72.3476 63.8762 71.3622 64.8615 70.1509 64.8615H67.9536V55.7166H70.1509C71.3622 55.7166 72.3476 56.7019 72.3476 57.9138V62.6643Z" fill="#F54114"></path></svg>